<?xml version="1.0" encoding="UTF-8"?>
<!-- Generated by Pixelmator Pro 3.4.2 -->
<svg width="64" height="64" viewBox="0 0 64 64" xmlns="http://www.w3.org/2000/svg">
    <g id="Group">
        <path id="Path-copy-6" fill="#000000" fill-rule="evenodd" stroke="none" d="M 9.021575 23.884609 C 8.59518 23.298317 8.24873 22.658722 7.928936 21.965836 C 5.956855 17.568623 3.718276 14.210758 1 11.892231 C 2.91878 11.412537 4.890861 12.105423 6.916242 13.970905 C 6.489846 12.318626 6.223349 10.399841 6.063451 8.187916 C 9.021575 10.45314 10.487308 13.14476 10.19416 16.262787 C 10.007612 18.181564 10.114209 19.700603 10.567255 20.873192 C 10.887054 21.779285 11.420046 22.44553 12.13959 22.92522 C 12.699232 23.298317 13.392126 23.511517 14.218272 23.591465 C 13.498727 22.712021 13.258881 21.805927 13.445427 20.76659 C 13.631975 19.647305 14.271567 18.394768 15.230961 16.929024 C 16.083752 15.649841 16.616747 14.477249 16.856596 13.411263 C 17.709387 9.893497 15.444158 7.548317 10.51396 6.668877 C 11.739845 6.32243 13.258885 6.055931 15.071063 5.816082 L 14.058375 0.139683 C 19.494921 3.844002 22.532995 7.068623 22.852791 9.493752 C 22.959393 10.426487 22.692892 11.225979 22 11.918873 C 21.280458 12.611771 20.640867 13.278015 20.081221 13.917606 C 18.775381 15.436646 17.949242 16.902378 17.92259 18.60796 C 22.399748 13.94426 28.689087 11.066086 35.671322 11.066086 C 49.262691 11.066086 60.269035 22.07243 60.269035 35.663795 C 60.269035 49.255173 49.262691 60.26152 35.671322 60.26152 C 22.079948 60.26152 11.073606 49.255173 11.073606 35.663803 C 11.073606 32.625725 11.633247 29.747555 12.619291 27.055935 C 11.979697 26.709484 11.366755 26.309738 10.780457 25.830048 C 10.114213 25.270401 9.527922 24.63081 9.021575 23.911263 L 9.021575 23.884609 Z"/>
        <path id="Path-copy-5" fill="#000000" fill-rule="evenodd" stroke="none" d="M 43.852791 38.755173 C 43.373096 33.158726 49.955582 30.014053 52.567261 34.517868 C 51.421318 34.038162 50.621826 33.931572 50.168785 34.198063 C 52.034264 35.530548 52.567261 38.035629 51.421318 40.00771 C 50.275379 41.97979 47.796951 42.725983 45.744923 41.766594 C 46.94416 41.899841 48.0368 41.100349 48.276646 39.927761 C 48.489849 38.755177 47.770302 37.582588 46.597713 37.289436 C 45.425125 36.996292 44.225887 37.635883 43.852791 38.781822 L 43.852791 38.755173 Z"/>
        <path id="Path-copy-4" fill="#000000" fill-rule="evenodd" stroke="none" d="M 23.572336 32.519135 C 26.690353 27.10923 34.605328 30.920147 34.045685 37.635883 C 33.59264 36.250092 32.1269 35.477253 30.741116 35.850346 C 29.328682 36.223446 28.475887 37.60923 28.742388 39.021667 C 29.008886 40.434105 30.341372 41.420147 31.780457 41.233597 C 29.302031 42.406189 26.34391 41.47345 24.95812 39.128273 C 23.572336 36.756439 24.238577 33.718376 26.450506 32.146042 C 25.890863 31.826237 24.931473 31.959488 23.572336 32.545784 L 23.572336 32.519135 Z"/>
        <linearGradient id="linearGradient1" x1="34.711929" y1="43.707302" x2="44.91878" y2="43.707302" gradientUnits="userSpaceOnUse">
            <stop offset="0" stop-color="#0eff00" stop-opacity="1"/>
            <stop offset="1" stop-color="#efff00" stop-opacity="1"/>
        </linearGradient>
        <path id="Path-copy-3" fill="url(#linearGradient1)" fill-rule="evenodd" stroke="none" d="M 34.711929 44.538166 C 36.044418 43.045784 37.963196 42.246288 39.93528 42.35289 C 41.93401 42.459492 43.746193 43.472176 44.918781 45.071163 C 41.960659 42.752636 37.883247 42.53944 34.711929 44.538166 Z"/>
        <linearGradient id="linearGradient2" x1="16.542181" y1="46.013214" x2="79.465414" y2="12.302678" gradientUnits="userSpaceOnUse">
            <stop offset="0" stop-color="#0eff00" stop-opacity="1"/>
            <stop offset="1" stop-color="#efff00" stop-opacity="1"/>
        </linearGradient>
        <path id="Path-copy-2" fill="url(#linearGradient2)" fill-rule="evenodd" stroke="none" d="M 39.93528 41.526749 C 36.444164 41.420147 33.672588 44.964561 26.477156 47.789436 C 18.295687 51.01405 16.243652 41.766586 16.243652 35.79705 C 16.243652 35.397305 16.270304 34.970909 16.296953 34.571159 C 16.856596 29.134613 20.241114 20.926491 26.477156 23.804661 C 33.246193 26.92268 37.563454 31.399837 41.960659 32.359234 C 44.06599 32.812279 46.704315 30.893494 49.529186 28.708218 C 54.859138 24.577507 57.550762 29.107964 56.75127 37.769131 C 56.484772 40.807198 54.77919 50.241211 49.529186 47.762787 C 45.744923 45.977249 45.611671 41.686646 39.93528 41.500095 L 39.93528 41.526749 Z M 34.045685 37.635883 C 34.605328 30.920147 26.690353 27.10923 23.572336 32.519135 C 24.931473 31.932838 25.89086 31.799583 26.450506 32.119385 C 24.211927 33.718376 23.572336 36.729794 24.95812 39.101616 C 26.343906 41.47345 29.302027 42.379539 31.780457 41.206951 C 30.341368 41.393494 29.008883 40.407455 28.742384 38.995018 C 28.475885 37.582588 29.355328 36.170151 30.741116 35.8237 C 32.153549 35.4506 33.592636 36.250092 34.045681 37.60923 L 34.045685 37.635883 Z M 46.597717 37.262783 C 47.770306 37.555935 48.489849 38.728523 48.276653 39.901108 C 48.06345 41.0737 46.944164 41.899841 45.744926 41.739944 C 47.796955 42.699333 50.275379 41.95314 51.421322 39.981056 C 52.567261 38.00898 52.034264 35.503899 50.168785 34.17141 C 50.621826 33.904911 51.421322 34.011513 52.567261 34.491203 C 49.982235 29.9874 43.39975 33.158726 43.852795 38.728516 C 44.225887 37.582581 45.425129 36.942986 46.597717 37.23613 L 46.597717 37.262783 Z"/>
        <path id="Path-copy" fill="#000000" fill-rule="evenodd" stroke="none" d="M 54.166241 53.785629 C 58.829952 49.121918 61.734768 42.672684 61.734768 35.530548 C 61.734768 28.415066 58.856598 21.939175 54.166241 17.275471 C 49.502541 12.611771 43.053295 9.706947 35.911167 9.706947 C 29.888323 9.706947 24.318529 11.785629 19.921314 15.250095 C 20.134514 14.956944 20.374361 14.63715 20.64086 14.370647 C 21.227156 13.677761 21.866751 13.038162 22.532991 12.398567 C 23.145935 11.785629 23.519032 11.066078 23.625633 10.239937 C 27.329947 8.427753 31.513958 7.41507 35.911163 7.41507 C 43.666241 7.41507 50.701775 10.559734 55.765224 15.649841 C 60.855328 20.739941 64 27.748821 64 35.503899 C 64 43.258972 60.855328 50.29451 55.765224 55.357964 C 50.675125 60.448063 43.666241 63.592735 35.911163 63.592735 C 28.156088 63.592735 21.120558 60.448063 16.0571 55.357964 C 10.967 50.267864 7.822329 43.258972 7.822329 35.503906 C 7.822329 32.039429 8.435271 28.734871 9.581211 25.670147 C 9.82106 25.909996 10.060907 26.123192 10.327406 26.336391 C 10.7005 26.629536 11.073601 26.922688 11.473346 27.189178 C 10.593905 29.800858 10.114209 32.599083 10.114209 35.503906 C 10.114209 42.619385 12.992381 49.095276 17.682737 53.758976 C 22.346445 58.422684 28.795681 61.327511 35.937813 61.327511 C 43.053295 61.327511 49.529186 58.449329 54.192894 53.758976 L 54.166241 53.785629 Z"/>
    </g>
</svg>
